<?xml version="1.0" standalone="no"?>
<!DOCTYPE svg PUBLIC "-//W3C//DTD SVG 20010904//EN"
 "http://www.w3.org/TR/2001/REC-SVG-20010904/DTD/svg10.dtd">
<svg version="1.0" xmlns="http://www.w3.org/2000/svg"
 width="1765.000000pt" height="1765.000000pt" viewBox="0 0 1765.000000 1765.000000"
 preserveAspectRatio="xMidYMid meet">
<metadata>
Created by potrace 1.14, written by Peter Selinger 2001-2017
</metadata>
<g transform="translate(0.000000,1765.000000) scale(0.100000,-0.100000)"
fill="#000000" stroke="none">
<path d="M8675 15958 c-143 -49 -269 -93 -280 -98 -11 -5 -54 -20 -95 -33 -41
-14 -185 -63 -320 -110 -622 -215 -780 -270 -850 -294 -41 -14 -84 -29 -95
-33 -11 -5 -101 -36 -200 -70 -99 -34 -238 -82 -310 -107 -71 -25 -200 -69
-285 -98 -85 -30 -261 -90 -390 -135 -129 -45 -305 -106 -390 -135 -85 -29
-254 -88 -375 -130 -121 -42 -260 -90 -310 -106 -49 -17 -97 -33 -105 -36 -8
-3 -19 -7 -25 -9 -5 -2 -89 -31 -185 -64 -96 -34 -186 -66 -200 -70 -24 -8
-205 -71 -795 -275 -154 -54 -291 -101 -305 -105 -14 -5 -117 -40 -230 -80
-113 -39 -281 -98 -375 -130 -255 -88 -1081 -374 -1190 -412 -38 -14 -74 -26
-80 -28 -5 -1 -14 -4 -20 -6 -5 -2 -81 -28 -169 -58 -87 -30 -161 -57 -164
-60 -7 -8 -9 -7 98 -64 239 -127 230 -120 231 -155 1 -18 2 -45 4 -62 3 -39
15 -170 20 -219 2 -22 7 -79 10 -127 3 -49 7 -96 9 -106 2 -10 7 -58 10 -108
4 -49 9 -106 11 -125 2 -19 7 -66 10 -105 2 -38 7 -95 10 -125 3 -30 7 -80 10
-110 7 -95 16 -193 20 -235 2 -22 7 -76 10 -120 4 -44 8 -91 10 -105 2 -14 7
-70 10 -125 4 -55 8 -104 9 -108 0 -5 -53 -29 -119 -54 -173 -64 -175 -65
-175 -72 0 -4 126 -81 279 -171 216 -127 277 -168 268 -177 -7 -6 -43 -28 -82
-48 -38 -21 -77 -43 -86 -51 -8 -8 -18 -14 -21 -14 -3 0 -95 -51 -204 -113
-110 -63 -219 -125 -244 -139 -25 -14 -94 -54 -155 -88 -60 -35 -126 -72 -145
-83 -19 -10 -111 -63 -205 -117 -316 -181 -387 -220 -396 -220 -5 0 -9 -4 -9
-10 0 -5 -4 -10 -10 -10 -5 0 -33 -14 -61 -32 -43 -26 -49 -33 -33 -38 10 -4
89 -33 175 -64 l156 -57 7 -92 c3 -51 8 -101 10 -112 2 -11 7 -56 10 -100 4
-44 9 -91 11 -105 2 -14 6 -56 10 -95 3 -38 8 -88 10 -110 6 -58 14 -132 20
-200 3 -33 8 -76 10 -95 2 -19 7 -64 10 -100 4 -36 8 -81 10 -100 2 -19 6 -66
10 -105 3 -38 8 -83 10 -100 2 -16 6 -61 10 -100 3 -38 8 -83 10 -100 3 -25 9
-91 19 -212 1 -10 -55 -50 -146 -107 -82 -50 -148 -94 -148 -97 0 -5 519 -216
566 -230 11 -3 36 -13 55 -22 44 -20 461 -188 474 -191 6 -1 27 -10 49 -19 21
-9 41 -17 43 -17 3 0 19 -6 36 -14 34 -15 749 -300 757 -302 3 0 16 -5 30 -11
67 -28 356 -145 365 -147 6 -1 26 -9 45 -17 19 -9 118 -48 220 -88 153 -61
189 -79 208 -105 45 -60 443 -622 494 -696 28 -41 58 -83 66 -93 9 -9 38 -50
66 -91 28 -40 98 -140 156 -221 171 -241 185 -260 285 -401 38 -55 73 -103 77
-109 5 -5 80 -111 167 -235 88 -124 169 -238 181 -255 126 -175 154 -214 168
-236 9 -14 114 -162 232 -328 118 -166 252 -355 298 -419 46 -64 90 -126 98
-137 123 -170 586 -824 591 -835 4 -8 9 -17 13 -20 4 -3 62 -84 130 -180 68
-96 152 -214 187 -262 34 -48 63 -92 63 -97 0 -5 4 -11 8 -13 5 -1 68 -87 141
-191 73 -103 137 -189 142 -192 4 -3 36 3 71 14 247 77 748 231 768 236 8 2
251 76 540 165 289 89 532 163 540 165 25 6 700 213 765 235 33 11 112 35 175
54 142 42 1216 371 1285 392 68 22 596 184 615 189 8 2 67 20 130 40 63 20
122 38 130 40 8 2 141 42 295 90 154 47 354 108 445 136 91 27 203 62 249 76
l84 27 66 -71 c36 -39 107 -115 156 -168 50 -54 108 -117 130 -140 37 -39 197
-212 254 -274 33 -36 220 -238 256 -276 48 -51 228 -245 254 -274 127 -138
237 -257 292 -315 37 -39 87 -93 111 -120 25 -26 45 -42 45 -35 1 24 14 173
18 204 2 17 7 62 10 100 3 39 8 86 10 105 4 36 11 106 20 208 3 31 10 100 15
152 6 52 12 123 15 156 3 34 7 79 10 100 2 22 7 75 10 119 4 44 9 83 13 86 4
4 61 -11 127 -32 114 -37 221 -71 505 -161 69 -22 136 -43 150 -48 14 -5 106
-34 205 -65 99 -31 198 -62 220 -70 22 -7 141 -46 265 -85 124 -39 266 -84
315 -101 l90 -29 -813 813 -812 812 122 38 c68 21 179 56 248 77 285 88 1248
382 1265 386 30 6 151 48 158 54 4 4 10 31 12 61 15 198 20 266 30 424 3 50 8
108 10 130 2 22 7 81 10 130 3 50 8 113 11 140 3 28 6 77 8 110 6 90 16 233
21 295 5 60 11 135 20 250 3 41 7 102 10 135 2 33 7 98 10 145 4 47 8 106 10
131 l4 47 -182 158 c-100 87 -324 282 -497 433 -173 151 -382 334 -465 405
-82 72 -166 146 -186 164 -20 18 -45 40 -55 47 -22 16 -27 10 121 140 106 93
139 122 210 186 108 96 212 189 236 210 13 11 55 48 93 82 38 34 78 70 88 79
42 36 174 154 205 183 35 33 34 29 48 260 3 50 8 115 10 145 3 30 7 93 10 140
3 47 7 110 10 140 2 30 7 105 11 167 3 61 7 119 7 129 2 22 -46 -4 1080 567
64 32 119 62 122 66 2 4 7 46 10 92 3 46 7 104 10 129 2 25 7 81 10 125 11
149 14 180 19 240 3 33 8 96 11 140 3 44 8 98 10 120 2 22 7 76 10 120 3 44 8
103 10 130 2 28 7 86 10 130 3 44 8 98 10 120 2 22 7 78 10 125 3 47 8 101 10
120 2 19 7 76 10 125 4 50 8 106 10 125 6 66 18 235 19 284 l1 49 -120 49
c-66 27 -178 74 -250 103 -71 30 -242 99 -380 155 -137 56 -263 107 -280 115
-16 7 -66 27 -110 45 -44 17 -93 37 -110 44 -16 8 -154 64 -305 126 -151 61
-350 143 -442 181 -92 38 -170 69 -173 69 -3 0 -24 9 -48 19 -47 22 -92 41
-322 134 -283 115 -949 387 -980 401 -16 8 -111 46 -210 86 -99 40 -209 85
-245 100 -36 16 -148 62 -250 103 -352 142 -1009 411 -1045 427 -37 17 -416
170 -421 170 -2 0 -23 9 -47 20 -39 18 -457 191 -557 230 -25 9 -117 47 -205
83 -88 36 -239 97 -335 137 -96 39 -184 75 -195 80 -11 5 -121 50 -245 100
-124 50 -238 97 -255 105 -16 7 -66 27 -110 45 -44 17 -93 37 -110 44 -16 8
-88 37 -160 66 -124 50 -227 92 -270 111 -96 42 -512 209 -520 208 -5 0 -127
-41 -270 -91z"/>
</g>
</svg>
